<mxfile host="app.diagrams.net" agent="Mozilla/5.0 (X11; Linux x86_64; rv:129.0) Gecko/20100101 Firefox/129.0" version="24.7.7">
  <diagram name="Page-1" id="NbZuTXcRBFRr63xjYyhU">
    <mxGraphModel dx="2926" dy="1956" grid="0" gridSize="10" guides="1" tooltips="1" connect="1" arrows="1" fold="1" page="0" pageScale="1" pageWidth="850" pageHeight="1100" math="0" shadow="0">
      <root>
        <mxCell id="0" />
        <mxCell id="1" parent="0" />
        <mxCell id="LWahpmW2nLwz6pXJYOI1-4" value="" style="shape=image;verticalLabelPosition=bottom;labelBackgroundColor=default;verticalAlign=top;aspect=fixed;imageAspect=0;image=data:image/svg+xml,PHN2ZyB4bWxucz0iaHR0cDovL3d3dy53My5vcmcvMjAwMC9zdmciIGhlaWdodD0iMzAwIiB3aWR0aD0iMzAwLjAwMzc4IiBpZD0ic3ZnMzkiIHZpZXdCb3g9IjAgMCAzMDAuMDAzNzggMjk5Ljk5OTk5IiB2ZXJzaW9uPSIxLjEiPiYjeGE7ICAmI3hhOyAgPGRlZnMgaWQ9ImRlZnMxIj4mI3hhOyAgICA8c3R5bGUgaWQ9InN0eWxlMSI+LmF7ZmlsbDojODgxNzFhO30uYntmaWxsOiMyMzFmMjA7fTwvc3R5bGU+JiN4YTsgIDwvZGVmcz4mI3hhOyAgPHRpdGxlIGlkPSJ0aXRsZTEiPndpcmVndWFyZDwvdGl0bGU+JiN4YTsgIDxwYXRoIGlkPSJwYXRoMzciIGQ9Im0gMjk5Ljc0NTI2LDE0NS41NiBjIDAsMCA2LjkzOTYsLTE0NS41NiAtMTUzLjA0LC0xNDUuNTYgQyA1LjIyNTI2MDIsMCAwLjgwNTI2MDIyLDEzOS42MyAwLjgwNTI2MDIyLDEzOS42MyBjIDAsMCAtMjAuODExMDAwMjIsMTYwLjM3IDE0OS4xNTk5OTk3OCwxNjAuMzcgMTYzLjAyLDAgMTQ5Ljc4LC0xNTQuNDQgMTQ5Ljc4LC0xNTQuNDQgeiBtIC0xOTcuOCwtNTAuODYzIGMgMzAuMDE3LC0xOC4zNjQgNjguMzY2LC03LjE0MDEgODIuNzM1LDIwLjQ3NiAyLjcyMzMsNS4yMzM4IDMuMDY5NCwxMy4yOTEgMS4zNDQ3LDE4Ljc4MiAtNS45NTQ2LDE4Ljk1NiAtMjAuMDE0LDI5LjU4NyAtMzkuMzEyLDM0LjEwMyA1LjY4OTIsLTQuODcwNyAxMC4yMTgsLTEwLjM5NCAxMS42NTksLTE4LjAyNSBhIDI2LjQwMiwyNi40MDIgMCAwIDAgLTQuNTQyNSwtMjAuOTU2IDI2Ljc2LDI2Ljc2IDAgMCAwIC0zMC44MTEsLTkuMzg5MiBjIC0xMS44ODEsNC41MTExIC0xOC4zODksMTUuMzU0IC0xNy4yMTYsMjguNjgzIDEuMDg5OCwxMi4zODEgMTAuNDg0LDIwLjQwNSAyOC4wNjEsMjMuNDUzIC0yLjYyNywxLjM5MDQgLTQuNjUwMywyLjQxNDQgLTYuNjI5OSwzLjUxNzIgYSA2My45MTgsNjMuOTE4IDAgMCAwIC0yMC41NDQsMTcuODY4IGMgLTEuNzgzOSwyLjQwODQgLTMuMDEwNCwyLjYwMjQgLTUuNzI3LDAuOTQxMTYgLTM1LjMzOCwtMjEuNjEgLTM3LjYwOSwtNzUuODQ0IDAuOTgyMjYsLTk5LjQ1MyB6IG0gLTI2LjQ0OSwxMzMuNTMgYyAtNS42NzY5LDEuNDQxIC0xMS4xNzgsMy41NzQyIC0xNi45ODEsNS40Nzc1IDIuODM4NSwtMTkuMTUxIDI1LjI2NSwtMzYuNzg4IDQ0LjIzLC0zNC43NzYgYSA0OC44ODEsNDguODgxIDAgMCAwIC05LjI0MiwyNS44OTMgYyAtNi4zMDIsMS4xNjA2IC0xMi4yNDEsMS45NDE0IC0xOC4wMDcsMy40MDUgeiBtIDEyMC43OSwtMTg2Ljk4IGMgNS42MDk5LDAuMjA2MTIgMTEuMjMsMC4xMjA5MSAxNi44NDQsMC4yNTM3OCBhIDI5LjA1MiwyOS4wNTIgMCAwIDEgNC4xNjc0LDAuNTgwNjkgNDAuNjA3LDQwLjYwNyAwIDAgMSAtNC4yMzU3LDUuNDMzMiBjIC0yLjAwNywxLjg3MDEgLTQuMjc0NSwzLjY5ODYgLTcuMTY2MSwwLjg1NiAtMC42OTU1LC0wLjY4MzcyIC0yLjMzODYsLTAuNTI2NzkgLTMuNTQ4NywtMC41NDI3MiAtNS41ODIzLC0wLjA3MzM2IC0xMS4xNzIsLTAuMjUxNzcgLTE2Ljc0NiwtMC4wNDEzMiBhIDEwNC4wNCwxMDQuMDQgMCAwIDAgLTE0LjQyNSwxLjQ3MyBjIC0wLjg5MzY4LDAuMTYwNDYgLTIuMjI5OSwzLjEzMTUgLTEuODE5MSw0LjIyNyAwLjk2OTMsMi41ODUzIDIuMzgzMyw1LjQzNjMgNC40Nzc5LDcuMDg5OCA3Ljc0MDMsNi4xMSAxNS45NzIsMTEuNTk2IDIzLjc0OCwxNy42NjQgNy41NTYsNS44OTY2IDE0LjU4OSwxMi4zNTggMTguODc1LDIxLjI1MyA1LjU4NDMsMTEuNTkgNS43NDcsMjMuNzQzIDMuMzM4OCwzNS45NSAtNC4wMjAzLDIwLjM3OCAtMTQuMzMzLDM3LjI2MSAtMzEuMDMyLDQ5LjUyNCAtNi43Mjg4LDQuOTQxIC0xNS4wNiw3Ljc0NTEgLTIyLjc2NywxMS4yOTUgLTYuNzc4LDMuMTIyNSAtMTMuNzU1LDUuODExNSAtMjAuNTQ5LDguOTAwOCAtMTIuMjQ5LDUuNTY5NSAtMTkuMTMzLDE4Ljg2NSAtMTcuMTA4LDMyLjY4OCAxLjg1ODUsMTIuNjg1IDEyLjk4NywyMy4yNzEgMjUuNzM1LDI1LjQ1NiAxNS4yOTIsMi42MjE2IDMxLjA3MSwtNy4zMTYzIDM0LjgxMiwtMjIuODYgNC4yMDY3LC0xNy40NzggLTUuMjg5OCwtMzMuMDgzIC0yMy4wNjUsLTM3LjgxMyAtMC43ODI3MSwtMC4yMDgzMSAtMS41Njg0LC0wLjQwNTUyIC0zLjIwMTIsLTAuODI2OSA0Ljc1NDksLTIuMTI0NSA4Ljg2MTQsLTMuNjM4MSAxMi42NTMsLTUuNzI0NCBxIDkuOTIxMywtNS40NTk0IDE5LjQ4MSwtMTEuNTYyIGMgMS44NzQyLC0xLjE5OSAyLjg4NjgsLTEuMTk5NiA0LjQ4NTIsMC4xODIyNSAxMi4yMjUsMTAuNTcgMTkuNTE4LDIzLjcxOCAyMS41NjMsMzkuODM5IDMuMzg0NSwyNi42ODQgLTkuMjQ3MSw1MS4xOTggLTMzLjA3Miw2My43NjIgLTM2Ljg2LDE5LjQzOSAtODEuOTY1LC0yLjY4NjQgLTkwLjEwNiwtNDMuNTUyIC02Ljk3MzgsLTM1LjAwMyAxNy43MywtNjYuNzU0IDQ3LjQ2MiwtNzIuODg0IDEyLjc4NywtMi42MzY0IDI0LjQ4LC03Ljk1OTYgMzMuNTcsLTE3LjgwNyA1Ljg2NTIsLTYuMzU0MSA4LjcwODQsLTExLjgwNiA5LjY3NzIsLTE0LjI2NiBhIDM5LjU2NSwzOS41NjUgMCAwIDAgMi43MjExLC0xNC40NjkgMzMuODY3LDMzLjg2NyAwIDAgMCAtMi45NjU0LC0xMi4zOTggYyAtMy4xMDQsLTcuMDc1IC0xNC45OTUsLTE4LjMzIC0xNy45MzksLTIwLjcwNCBsIC0yOCwtMjEuOTIxIGMgLTAuOTg3NjEsLTAuODEyNTYgLTIuMDk5NCwtMC43NTM2NiAtNC41MDc5LC0wLjU5MDQ1IC0yLjg2MTEsMC4xOTM5MSAtMTAuMTc1LDAuNTk4ODggLTEzLjMzMSwtMC4yMjgxNSAyLjU1MywtMS45MzIxIDkuNTEzMiwtNC43NDUxIDEyLjUwMiwtNy4wMDcgLTkuMDczNCwtNi4xMjk3IC0xOS40MywtMy45MTU4IC0yOC45NDEsLTUuNzQ2MSAyLjE5OTIsLTQuMDk1OSAxMy4wODEsLTEwLjM5IDE5LjI3LC0xMS4wOTEgYSA5MS41MzMsOTEuNTMzIDAgMCAwIC0xLjY4NzYsLTEwLjI4MSBjIC0wLjM3NzgxLC0xLjM5MTcgLTEuOTMxMiwtMi43NDA4IC0zLjI4NjQsLTMuNTM1NSAtMy4yODYsLTEuOTI2NyAtNi43Njk0LC0zLjUxNjcgLTEwLjU0OSwtNS40MzI3IGEgMjEuOTM2LDIxLjkzNiAwIDAgMSAxMS4zMzIsLTMuNTA1NSA0Mi4zMTYsNDIuMzE2IDAgMCAxIDExLjM0OCwxLjEwNTYgYyA2Ljc0MjIsMS41NDA1IDEyLjEyNCwwLjUzNDkxIDE3LjQ4OCwtNC4wNDggLTQuMjIyLC0xLjcwMDIgLTguNDQzNSwtMy4yNTM1IC0xMi41MzgsLTUuMDkwNyBhIDEyMy4wNCwxMjMuMDQgMCAwIDEgLTExLjc3OSwtNi4xNTgzIGMgMTAuNjIyLDEuNDc1NSAyMC44OTYsNS40NTg1IDMxLjc1Nyw0LjAwMzQgcSAwLjEzODcsLTAuNzQwNDggMC4yNzcyOCwtMS40ODA5IGMgLTguMTE5NCwtMS44ODk5IC0xNi4yMzksLTMuNzc5OCAtMjUuMjI5LC01Ljg3MjQgMTUuMDQsLTEuMzc2OSAyOS4wNDIsLTEuNjA0IDQyLjMwMSw0Ljg1NDEgMy43MzEsMS44MTczIDcuNjM0OCwzLjMyMTUgMTEuMjExLDUuMzk3MiAxLjc0NDMsMS4wMTI0IDIuOTE4NiwzLjAwNzggNC4zNDk2LDQuNTU5NCAxLjEzNjYsMS4yMzI1IDIuMDQ5NSwyLjg4MzcgMy40NDYsMy42MjY0IDUuMywyLjgxODQgMTEuMTM0LDIuOTI5MSAxNy4wNzgsMi43ODc5IDAuMDQ0NCwtMC42NzY5NCAwLjA4NjEsLTEuMzExNCAwLjEzMDgsLTEuOTkzMyA1Ljk4MjEsMS44NjkzIDEyLjcxNSw4Ljc2NzkgMTIuNzA0LDEzLjgwNiAtOS42OTExLDAgLTE5LjM3NCwtMC4wMzcgLTI5LjA1NiwwLjA1Mzg5IC0xLjAzNDgsMC4wMDk3IC0yLjA2MjYsMC43NjU2MyAtMy4wOTM2LDEuMTc1NCAwLjk3OTg2LDAuNTcwNjcgMS45NDI4LDEuNTk5NCAyLjk0MjMsMS42MzYyIHoiIGNsYXNzPSJhIi8+JiN4YTsgIDxwYXRoIGlkPSJwYXRoMzgiIGQ9Im0gMTgzLjc4NTI2LDI2LjkwNiBhIDEuNDgwNiwxLjQ4MDYgMCAwIDAgLTAuMTg5MjcsMi4zNjg2IDIuMjMyNiwyLjIzMjYgMCAwIDAgMy4wNzI0LDAuODIxOSBjIDAuOTMyOCwtMC40NzA1MiAxLjg0NzgsLTAuOTcxMzcgMi45NzUsLTEuNTY2NSAtMC45MDc5LC0wLjc3NSAtMS42MzYyLC0xLjQxNDggLTIuMzg1NywtMi4wMzI0IC0xLjMxOCwtMS4wODYgLTIuNDExLC0wLjQwMzg2IC0zLjQ3MjQsMC40MDgzMyB6IiBjbGFzcz0iYSIvPiYjeGE7ICA8bWV0YWRhdGEgaWQ9Im1ldGFkYXRhMzkiPiYjeGE7ICAgICYjeGE7ICAgICAgJiN4YTsgICAgICAgIHdpcmVndWFyZCYjeGE7ICAgICAgJiN4YTsgICAgJiN4YTsgIDwvbWV0YWRhdGE+JiN4YTs8L3N2Zz4=;" parent="1" vertex="1">
          <mxGeometry x="352" y="-451" width="124" height="124" as="geometry" />
        </mxCell>
        <mxCell id="LWahpmW2nLwz6pXJYOI1-5" value="" style="points=[[0.13,0.02,0],[0.5,0,0],[0.87,0.02,0],[0.885,0.4,0],[0.985,0.985,0],[0.5,1,0],[0.015,0.985,0],[0.115,0.4,0]];verticalLabelPosition=bottom;sketch=0;html=1;verticalAlign=top;aspect=fixed;align=center;pointerEvents=1;shape=mxgraph.cisco19.laptop;fillColor=#005073;strokeColor=none;" parent="1" vertex="1">
          <mxGeometry x="-41" y="-308" width="110" height="77" as="geometry" />
        </mxCell>
        <mxCell id="LWahpmW2nLwz6pXJYOI1-6" value="" style="sketch=0;points=[[0.015,0.015,0],[0.985,0.015,0],[0.985,0.985,0],[0.015,0.985,0],[0.25,0,0],[0.5,0,0],[0.75,0,0],[1,0.25,0],[1,0.5,0],[1,0.75,0],[0.75,1,0],[0.5,1,0],[0.25,1,0],[0,0.75,0],[0,0.5,0],[0,0.25,0]];verticalLabelPosition=bottom;html=1;verticalAlign=top;aspect=fixed;align=center;pointerEvents=1;shape=mxgraph.cisco19.handheld;fillColor=#005073;strokeColor=none;" parent="1" vertex="1">
          <mxGeometry x="84" y="-308" width="58.5" height="78" as="geometry" />
        </mxCell>
        <mxCell id="LWahpmW2nLwz6pXJYOI1-10" value="" style="points=[[0,0.64,0],[0.2,0.15,0],[0.4,0.01,0],[0.79,0.25,0],[1,0.65,0],[0.8,0.86,0],[0.41,1,0],[0.16,0.86,0]];verticalLabelPosition=bottom;sketch=0;html=1;verticalAlign=top;aspect=fixed;align=center;pointerEvents=1;shape=mxgraph.cisco19.cloud;fillColor=#186180;strokeColor=none;" parent="1" vertex="1">
          <mxGeometry x="344" y="-220" width="213.34" height="128" as="geometry" />
        </mxCell>
        <mxCell id="LWahpmW2nLwz6pXJYOI1-11" value="" style="shape=flexArrow;endArrow=classic;html=1;rounded=0;fontSize=12;startSize=8;endSize=8;curved=1;" parent="1" edge="1">
          <mxGeometry width="50" height="50" relative="1" as="geometry">
            <mxPoint x="162" y="-280" as="sourcePoint" />
            <mxPoint x="343" y="-384" as="targetPoint" />
            <Array as="points">
              <mxPoint x="190" y="-385" />
            </Array>
          </mxGeometry>
        </mxCell>
        <mxCell id="LWahpmW2nLwz6pXJYOI1-13" value="" style="shape=flexArrow;endArrow=classic;html=1;rounded=0;fontSize=12;startSize=8;endSize=8;curved=1;entryX=-0.011;entryY=0.547;entryDx=0;entryDy=0;entryPerimeter=0;" parent="1" target="LWahpmW2nLwz6pXJYOI1-10" edge="1">
          <mxGeometry width="50" height="50" relative="1" as="geometry">
            <mxPoint x="161" y="-265" as="sourcePoint" />
            <mxPoint x="673" y="-160" as="targetPoint" />
            <Array as="points">
              <mxPoint x="189" y="-151" />
            </Array>
          </mxGeometry>
        </mxCell>
        <mxCell id="LWahpmW2nLwz6pXJYOI1-14" value="" style="shape=flexArrow;endArrow=classic;html=1;rounded=0;fontSize=12;startSize=8;endSize=8;curved=1;" parent="1" edge="1">
          <mxGeometry width="50" height="50" relative="1" as="geometry">
            <mxPoint x="490" y="-389" as="sourcePoint" />
            <mxPoint x="618" y="-389" as="targetPoint" />
          </mxGeometry>
        </mxCell>
        <mxCell id="LWahpmW2nLwz6pXJYOI1-15" value="" style="shape=image;verticalLabelPosition=bottom;labelBackgroundColor=default;verticalAlign=top;aspect=fixed;imageAspect=0;image=data:image/svg+xml,PHN2ZyB4bWxucz0iaHR0cDovL3d3dy53My5vcmcvMjAwMC9zdmciIGhlaWdodD0iMzIwIiB3aWR0aD0iMzE2LjM5OTk5IiB4bWw6c3BhY2U9InByZXNlcnZlIiB2aWV3Qm94PSIwIDAgMzE2LjM5OTk5IDMyMCIgeT0iMHB4IiB4PSIwcHgiIGlkPSJNdWxsdmFkX1ZQTl9Mb2dvX0NvbG9yX1BvcyIgdmVyc2lvbj0iMS4xIj48ZGVmcyBpZD0iZGVmczM2Ii8+JiN4YTs8c3R5bGUgaWQ9InN0eWxlMSIgdHlwZT0idGV4dC9jc3MiPiYjeGE7CS5iYWNrZ3JvdW5ke2ZpbGwtcnVsZTpldmVub2RkO2NsaXAtcnVsZTpldmVub2RkO2ZpbGw6IzE5MkU0NTt9JiN4YTsJLmZ1cntmaWxsLXJ1bGU6ZXZlbm9kZDtjbGlwLXJ1bGU6ZXZlbm9kZDtmaWxsOiNEMjk0M0I7fSYjeGE7CS5ub3Nle2ZpbGwtcnVsZTpldmVub2RkO2NsaXAtcnVsZTpldmVub2RkO2ZpbGw6I0ZGQ0Q4Njt9JiN4YTsJLmhlbG1ldHtmaWxsLXJ1bGU6ZXZlbm9kZDtjbGlwLXJ1bGU6ZXZlbm9kZDtmaWxsOiNGRkQ1MjQ7fSYjeGE7CS5sYW1wLWxpZ2h0e2ZpbGw6I0ZGRkZGRjt9JiN4YTsJLmxhbXAtcmluZ3tmaWxsOiMxOTJFNDU7fSYjeGE7CS50ZXh0e2ZpbGw6IzE5MkU0NTt9JiN4YTs8L3N0eWxlPiYjeGE7PGcgdHJhbnNmb3JtPSJ0cmFuc2xhdGUoLTQxLjgsLTQwKSIgaWQ9ImxvZ28iPiYjeGE7CTxnIGlkPSJtb2xlIj4mI3hhOwkJPHBhdGggZD0ibSA3NCwxOTguMSBjIDAsNjkuNiA1Ni41LDEyNiAxMjYsMTI2IDY5LjUsMCAxMjYsLTU2LjQgMTI2LC0xMjYgMCwtNjkuNiAtNTYuNCwtMTI2IC0xMjYsLTEyNiAtNjkuNiwwIC0xMjYsNTYuMyAtMTI2LDEyNiB2IDAgeiIgY2xhc3M9ImJhY2tncm91bmQiIGlkPSJiZyIvPiYjeGE7CQk8Zz4mI3hhOwkJCTxwYXRoIGQ9Im0gOTcuOSwxNjguNyAtNy4xLDE0LjQgOS42LC0xMy40IGMgMCwwLjEgLTAuNiwxOS4zIC0wLjYsMTkuMyBsIDIuNywtMTQuNSBjIDcuMiwxMy43IDIzLjEsMzQuOCA0NS40LDUwLjUgMS43LDEuMiAzLjksMy4zIDQuNiw0LjEgMCwwIDIxLjMsMTAuOCA1NC4xLC0xNC4yIDAuMywtMC4yIDAuNywtMC40IDEsLTAuNiBsIDAuNSwwLjMgNy4yLDQuOCBjIC0yLjUsLTAuNyAtNy4zLC0xLjkgLTcuMywtMS45IC0xNS44LDE4LjIgLTQxLjUsMjEuMiAtNTUuMywxMiAtMC42LC0wLjQgLTQsMSAtNC42LDMgLTAuNCwxLjEgMCwyLjMgMC41LDMuMiAyLjgsNS4yIDcsNC43IDUsMTAuOCAtMS40LDMuMyAtMy40LDYuNSAtNS42LDkuNSAtNC42LDYuMiAtMTEuOCwxMS43IC0xMS4xLDE1IDMyLjYsNDAuMiAxMDYuMSwzNC42IDEzNC4xLC0xLjMgLTAuNCwtNS4yIC04LjYsLTcuNyAtMTQuMywtMjAuNCAxLjYsMC41IDQsMS4yIDQsMS4xIDAsLTAuMSAtNi44LC0xMS4xIC03LjEsLTEyLjIgbCA0LjQsMC4zIGMgMCwwIC01LjgsLTcuMiAtNiwtNy45IGwgNS45LC0wLjggYyAwLDAgLTcuNCwtOC41IC03LjUsLTkuMiBsIDcuNSwxLjIgLTguMiwtOS45IGggMy45IGwgLTQuNiwtNi43IC0zNy4zLC0xNC43IGMgLTE0LjMsLTguOSAtMjcsLTE5LjggLTM2LjYsLTI4LjIgbCAtMTkuMywtOS40IGMgLTE4LjUsLTEuNCAtMzUuOCwtMC45IC00Ni40LDEuMiBsIDYuOCwtMTEuNiAtOS45LDExLjggYyAtMC43LC0wLjIgLTEuNCwtMC40IC0xLjQsLTAuNCBsIDAuNywtMTUgLTMuMywxNCB6IiBjbGFzcz0iZnVyIiBpZD0iZnVyIi8+JiN4YTsJCQk8cGF0aCBkPSJtIDEwMi40LDE1Mi45IGMgLTQuOSwtMi4zIC0xMC42LDEgLTExLjYsNS41IC0xLjIsNC4zIDEuOCw5LjYgNy4xLDEwLjMgNSwtMy4xIDkuMywtMTEuMSA0LjUsLTE1LjggeiIgY2xhc3M9Im5vc2UiIGlkPSJub3NlIi8+JiN4YTsJCTwvZz4mI3hhOwkJPGcgaWQ9ImcxIj4mI3hhOwkJCTxwYXRoIGQ9Im0gMTc1LjIsMTQxLjkgYyAtMS41LC00LjEgLTEuMSwtOS40IDEsLTE0LjQgMywtNi45IDguNywtMTEuNSAxNC4xLC0xMS41IDEuMSwwIDIuMSwwLjIgMy4xLDAuNiAzLjEsLTIuOCA2LjcsLTUuMSAxMC43LC02LjcgMjIsLTguOCA1NC4zLDYuOSA2Mi42LDI4LjUgNCwxMC41IDIuOCwyMS45IC0wLjYsMzIuNCAtMi44LDguNiAtMTMsMjEgLTkuMiwzMC4zIC0xLjUsLTAuNCAtMzIuOCwtMTEgLTQxLjgsLTE1LjggLTE0LjEsLTguOCAtMjYuNywtMTkuNiAtMzYuMiwtMjcuOSBsIC0wLjMsLTAuMyAtMzIsLTE1LjIgYyAtMC40LC0wLjIgLTAuOCwtMC40IC0xLjEsLTAuNiA0LjQsMC4zIDIxLjksMi40IDI5LjcsMC42IiBjbGFzcz0iaGVsbWV0IiBpZD0iaGVsbWV0Ii8+JiN4YTsJCQk8ZyBpZD0iaGVsbWV0X2xhbXAiPiYjeGE7CQkJCTxwYXRoIGQ9Im0gMTg0LjYsMTQ1LjYgYyAtMC45LDAgLTEuNiwtMC4yIC0yLjMsLTAuNSAtMS42LC0wLjcgLTIuOCwtMiAtMy42LC00IC0xLjQsLTMuNCAtMSwtOC4xIDAuOSwtMTIuNSAyLjUsLTUuNiA3LjMsLTkuNyAxMS41LC05LjcgMC44LDAgMS42LDAuMiAyLjQsMC41IDIuMSwwLjkgMy42LDMgNC4xLDYgMC42LDMuMiAwLjEsNi45IC0xLjUsMTAuNCAtMi40LDUuNiAtNy4zLDkuOCAtMTEuNSw5LjggeiIgY2xhc3M9ImxhbXAtbGlnaHQiIGlkPSJsYW1wLWxpZ2h0Ii8+JiN4YTsJCQkJJiN4YTsJCQkJPHBhdGggZD0ibSAxOTEuMSwxMjAuNiBjIDAuNiwwIDEuMiwwLjEgMS44LDAuNCAxLjYsMC43IDIuOCwyLjUgMy4yLDQuOSAwLjUsMi45IDAuMSw2LjMgLTEuNCw5LjUgLTIuMiw1LjEgLTYuNSw4LjggLTEwLjEsOC44IC0wLjYsMCAtMS4yLC0wLjEgLTEuNywtMC4zIHYgMCAwIGMgLTEuNSwtMC42IC0yLjMsLTIgLTIuNywtMy4xIC0xLjIsLTMgLTAuOSwtNy40IDAuOCwtMTEuNCAyLjIsLTUuMiA2LjUsLTguOCAxMC4xLC04LjggbSAwLC0zIGMgLTQuOCwwIC0xMC4xLDQuNCAtMTIuOSwxMC43IC0yLjEsNC43IC0yLjQsOS44IC0wLjksMTMuNyAwLjksMi4zIDIuNCwzLjkgNC4zLDQuOCAwLjksMC40IDEuOSwwLjYgMywwLjYgNC44LDAgMTAuMSwtNC40IDEyLjgsLTEwLjcgMS43LC0zLjggMi4yLC03LjggMS42LC0xMS4zIC0wLjYsLTMuNSAtMi41LC01LjggLTQuOSwtNy4xIC0wLjksLTAuNSAtMiwtMC43IC0zLC0wLjcgeiIgY2xhc3M9ImxhbXAtcmluZyIgaWQ9ImxhbXAtcmluZyIvPiYjeGE7CQkJCSYjeGE7CQkJPC9nPiYjeGE7CQk8L2c+JiN4YTsJPC9nPiYjeGE7CTxnIGlkPSJzdHJva2VzIj4mI3hhOwkJPHBhdGggaWQ9InBhdGgxIiBkPSJtIDMxMS43LDI5OC42IC00LjUsLTQgQyAzMzAsMjY5LjMgMzQzLDIzNi40IDM0My43LDIwMi4xIGwgNiwwLjEgYyAtMC43LDM1LjggLTE0LjIsNzAgLTM4LDk2LjQgeiIgY2xhc3M9InRleHQiLz4mI3hhOwkJPHBhdGggaWQ9InBhdGgyIiBkPSJNIDg4LjMsMjk4LjYgQyA2NC41LDI3Mi4yIDUxLDIzOCA1MC4yLDIwMi4zIGwgNiwtMC4xIGMgMC44LDM0LjMgMTMuNyw2Ny4xIDM2LjUsOTIuNSB6IiBjbGFzcz0idGV4dCIvPiYjeGE7CTwvZz4mI3hhOwk8ZyBpZD0icHJpdmFjeS1pcy1hLXVuaXZlcnNhbC1yaWdodCI+JiN4YTsJCTxwYXRoIGlkPSJwYXRoMyIgZD0ibSA2Mi43LDE5My40IGMgMCwwLjIgLTAuMiwwLjMgLTAuNCwwLjMgbCAtMjAuMiwtMy42IGMgLTAuMiwwIC0wLjMsLTAuMiAtMC4zLC0wLjQgbCAxLjUsLTguMSBjIDAuOCwtNC41IDQsLTYuOCA4LC02IDMuOSwwLjcgNi4yLDQgNS40LDguNSBsIC0wLjcsMy43IGMgMCwwLjEgMCwwLjIgMC4yLDAuMiBsIDYuOSwxLjMgYyAwLjIsMCAwLjMsMC4yIDAuMywwLjQgeiBNIDUwLjYsMTgwIGMgLTEuNywtMC4zIC0zLDAuNiAtMy40LDIuNSBsIC0wLjYsMy40IGMgMCwwLjEgMCwwLjIgMC4yLDAuMiBMIDUyLDE4NyBjIDAuMSwwIDAuMiwwIDAuMiwtMC4yIGwgMC42LC0zLjQgYyAwLjQsLTEuNyAtMC41LC0zLjEgLTIuMiwtMy40IHoiIGNsYXNzPSJ0ZXh0Ii8+JiN4YTsJCTxwYXRoIGlkPSJwYXRoNCIgZD0ibSA2Ny42LDE2My42IGMgLTAuMSwwLjMgLTAuMiwwLjMgLTAuNCwwLjQgbCAtOC40LDEuOCAtMC42LDIuOCBjIDAsMC4xIDAsMC4yIDAuMSwwLjIgbCA3LjQsMS43IGMgMC4yLDAgMC4zLDAuMiAwLjIsMC40IGwgLTAuOSwzLjkgYyAwLDAuMiAtMC4yLDAuMyAtMC40LDAuMiBsIC0yMCwtNC42IGMgLTAuMiwwIC0wLjMsLTAuMiAtMC4yLC0wLjQgbCAxLjksLTguMiBjIDEsLTQuMiA0LjIsLTYuNCA4LC01LjUgMi42LDAuNiA0LjQsMi41IDQuOSw1IGwgOS4xLC0yLjIgYyAwLjIsMCAwLjQsMC4xIDAuMywwLjMgeiBtIC0xNC4zLC0yLjkgYyAtMS41LC0wLjQgLTIuOCwwLjUgLTMuMiwyLjIgbCAtMC44LDMuNiBjIDAsMC4xIDAsMC4yIDAuMSwwLjIgbCA0LjgsMS4xIGMgMC4xLDAgMC4yLDAgMC4yLC0wLjEgbCAwLjgsLTMuNiBjIDAuNCwtMS44IC0wLjMsLTMuMSAtMS45LC0zLjQgeiIgY2xhc3M9InRleHQiLz4mI3hhOwkJPHBhdGggaWQ9InBhdGg1IiBkPSJtIDQ5LjksMTUwIGMgLTAuMiwtMC4xIC0wLjMsLTAuMiAtMC4yLC0wLjQgbCAxLjMsLTMuNyBjIDAuMSwtMC4yIDAuMiwtMC4zIDAuNCwtMC4yIGwgMTkuNSw2LjUgYyAwLjIsMC4xIDAuMywwLjIgMC4yLDAuNCBsIC0xLjMsMy43IGMgLTAuMSwwLjIgLTAuMiwwLjMgLTAuNCwwLjIgeiIgY2xhc3M9InRleHQiLz4mI3hhOwkJPHBhdGggaWQ9InBhdGg2IiBkPSJtIDc0LjQsMTQ0IGMgLTAuMSwwLjIgLTAuMywwLjMgLTAuNCwwLjIgTCA1Mi41LDE0MiBjIC0wLjIsMCAtMC4zLC0wLjIgLTAuMiwtMC40IGwgMS42LC0zLjcgYyAwLjEsLTAuMiAwLjIsLTAuMyAwLjQsLTAuMiBsIDE0LjQsMS44IHYgLTAuMSBsIC0xMSwtOS40IGMgLTAuMiwtMC4xIC0wLjIsLTAuMyAtMC4xLC0wLjUgbCAxLjYsLTMuNyBjIDAuMSwtMC4yIDAuMiwtMC4yIDAuNCwtMC4xIGwgMTYsMTQuNSBjIDAuMSwwLjEgMC4yLDAuMyAwLjEsMC41IHoiIGNsYXNzPSJ0ZXh0Ii8+JiN4YTsJCTxwYXRoIGlkPSJwYXRoNyIgZD0ibSA2NC4yLDExOC4xIGMgLTAuMSwtMC4yIC0wLjIsLTAuMyAtMC4xLC0wLjUgbCAyLC0zLjMgYyAwLjEsLTAuMiAwLjMsLTAuMiAwLjUsLTAuMiBsIDIxLjMsNC42IGMgMC4yLDAgMC4zLDAuMiAwLjIsMC4zIGwgLTIuMSwzLjUgYyAtMC4xLDAuMiAtMC4zLDAuMiAtMC41LDAuMiBsIC0zLjgsLTAuOSAtMy45LDYuMyAyLjUsMi45IGMgMC4yLDAuMiAwLjIsMC4zIDAuMSwwLjUgbCAtMi4xLDMuNSBjIC0wLjEsMC4yIC0wLjMsMC4yIC0wLjQsMCB6IG0gMTMuNSwyLjcgLTcuNiwtMS44IHYgMC4xIGwgNS4xLDUuOSB6IiBjbGFzcz0idGV4dCIvPiYjeGE7CQk8cGF0aCBpZD0icGF0aDgiIGQ9Im0gODAuMiwxMTIgYyAtMi42LC0yIC0zLjMsLTIuOCAtNC4xLC00IC0yLC0zIC0xLjcsLTYuMiAwLjYsLTkuMSAyLjIsLTIuOCA1LjIsLTMuNyA4LjMsLTIuOCAwLjIsMCAwLjMsMC4yIDAuMiwwLjQgbCAtMC45LDMuNiBjIDAsMC4yIC0wLjIsMC4zIC0wLjQsMC4yIC0xLjQsLTAuNCAtMi45LC0wLjMgLTQsMS4xIC0xLDEuMyAtMSwyLjcgLTAuMiwzLjkgMC41LDAuNyAxLDEuMiAzLjMsMy4xIDIuNCwxLjkgMywyLjMgMy44LDIuNiAxLjQsMC41IDIuOCwwLjMgMy44LC0xIDEuMSwtMS40IDAuOSwtMi44IDAuMiwtNC4xIC0wLjEsLTAuMiAwLC0wLjMgMC4yLC0wLjQgbCAzLjMsLTEuNyBjIDAuMiwtMC4xIDAuMywtMC4xIDAuNCwwLjEgMS42LDIuOCAxLjMsNS45IC0wLjksOC43IC0yLjMsMi45IC01LjQsMy45IC04LjgsMi42IC0xLjMsLTAuNiAtMi4yLC0xLjIgLTQuOCwtMy4yIHoiIGNsYXNzPSJ0ZXh0Ii8+JiN4YTsJCTxwYXRoIGlkPSJwYXRoOSIgZD0ibSAxMDMuMiwxMDEuNSBjIC0wLjEsMC4xIC0wLjMsMC4xIC0wLjQsMCBMIDk3LjEsOTUuNiA4NCw5MS4xIEMgODMuOCw5MSA4My44LDkwLjkgODMuOSw5MC43IGwgMi45LC0yLjggYyAwLjIsLTAuMiAwLjMsLTAuMiAwLjYsLTAuMSBsIDguMSwyLjkgMC4xLC0wLjEgLTIuNiwtOC4yIGMgLTAuMSwtMC4yIDAsLTAuNCAwLjEsLTAuNSBsIDIuOCwtMi43IGMgMC4yLC0wLjIgMC4zLC0wLjEgMC40LDAuMSBsIDQuMiwxMy4yIDUuNyw1LjggYyAwLjEsMC4xIDAuMSwwLjMgMCwwLjQgeiIgY2xhc3M9InRleHQiLz4mI3hhOwkJPHBhdGggaWQ9InBhdGgxMCIgZD0ibSAxMDQuOSw3Mi40IGMgLTAuMSwtMC4yIC0wLjEsLTAuMyAwLjEsLTAuNCBsIDMuMiwtMi4zIGMgMC4yLC0wLjEgMC4zLC0wLjEgMC40LDAuMSBsIDEyLjIsMTYuNSBjIDAuMSwwLjIgMC4xLDAuMyAtMC4xLDAuNCBsIC0zLjIsMi4zIGMgLTAuMiwwLjEgLTAuMywwLjEgLTAuNCwtMC4xIHoiIGNsYXNzPSJ0ZXh0Ii8+JiN4YTsJCTxwYXRoIGlkPSJwYXRoMTEiIGQ9Im0gMTIxLjYsODIuNiBjIC0wLjIsMCAtMC4zLC0wLjIgLTAuMywtMC40IGwgMC42LC0zLjUgYyAwLC0wLjIgMC4yLC0wLjMgMC40LC0wLjMgMS44LDAuMiAzLjksMC4yIDUuOSwtMSAxLjksLTEuMSAyLjQsLTIuNyAxLjcsLTMuOSAtMC42LC0xLjEgLTEuNywtMS40IC00LC0wLjQgbCAtMSwwLjQgYyAtNCwxLjcgLTcuMSwxLjIgLTksLTIgLTIsLTMuMyAtMC44LC03LjEgMy4xLC05LjQgMi40LC0xLjQgNS4xLC0yLjEgNy4zLC0xLjggMC4yLDAgMC4zLDAuMSAwLjMsMC40IGwgLTAuMiwzLjQgYyAwLDAuMiAtMC4xLDAuMyAtMC4zLDAuMyAtMS45LC0wLjEgLTMuNiwwLjIgLTUsMS4xIC0xLjYsMSAtMS45LDIuMyAtMS4yLDMuNCAwLjYsMSAxLjgsMS4zIDQsMC4zIGwgMSwtMC40IGMgNCwtMS43IDcsLTEuMiA5LDIuMSAyLDMuMyAxLDcuMiAtMy43LDEwIC0zLDEuNyAtNi40LDIuMiAtOC42LDEuNyB6IiBjbGFzcz0idGV4dCIvPiYjeGE7CQk8cGF0aCBpZD0icGF0aDEyIiBkPSJtIDE0My43LDUwLjggYyAwLC0wLjIgMC4xLC0wLjQgMC4zLC0wLjQgbCAzLjcsLTEuMyBjIDAuMiwtMC4xIDAuNCwwIDAuNSwwLjIgTCAxNjIsNjYuMSBjIDAuMSwwLjIgMC4xLDAuMyAtMC4xLDAuNCBsIC0zLjgsMS40IGMgLTAuMiwwLjEgLTAuNCwwIC0wLjUsLTAuMiBsIC0yLjQsLTMuMSAtNywyLjUgMC4yLDMuOSBjIDAsMC4yIC0wLjEsMC40IC0wLjMsMC40IGwgLTMuOCwxLjQgYyAtMC4yLDAuMSAtMC4zLDAgLTAuMywtMC4yIHogbSA5LDEwLjUgLTQuOCwtNi4xIGggLTAuMSBsIDAuMyw3LjggeiIgY2xhc3M9InRleHQiLz4mI3hhOwkJPHBhdGggaWQ9InBhdGgxMyIgZD0ibSAxNjkuMyw1Ni41IC0yLC0xMi45IGMgMCwtMC4yIDAuMSwtMC4zIDAuMywtMC40IGwgMy45LC0wLjYgYyAwLjIsMCAwLjMsMC4xIDAuNCwwLjMgbCAyLjEsMTMgYyAwLjQsMi41IDIsMy43IDQuMSwzLjQgMi4xLC0wLjMgMy4yLC0yIDIuOSwtNC41IGwgLTIuMSwtMTMgYyAwLC0wLjIgMC4xLC0wLjMgMC4zLC0wLjQgbCAzLjksLTAuNiBjIDAuMiwwIDAuMywwLjEgMC40LDAuMyBsIDIsMTIuOSBjIDAuOCw1LjIgLTIuMSw4LjUgLTYuNyw5LjMgLTQuOSwwLjcgLTguNiwtMS42IC05LjUsLTYuOCB6IiBjbGFzcz0idGV4dCIvPiYjeGE7CQk8cGF0aCBpZD0icGF0aDE0IiBkPSJtIDE4OS41LDQwLjYgYyAwLC0wLjIgMC4xLC0wLjMgMC4zLC0wLjMgbCAzLjcsLTAuMSBjIDAuMiwwIDAuNCwwLjEgMC41LDAuMyBsIDcuNywxMy4yIGggMC4yIGwgLTAuMiwtMTMuMyBjIDAsLTAuMiAwLjEsLTAuMyAwLjMsLTAuMyBsIDMuNSwtMC4xIGMgMC4yLDAgMC4zLDAuMSAwLjMsMC4zIGwgMC4zLDIwLjUgYyAwLDAuMiAtMC4xLDAuMyAtMC4zLDAuMyBsIC0zLjcsMC4xIGMgLTAuMiwwIC0wLjQsLTAuMSAtMC41LC0wLjMgbCAtNy43LC0xMy4yIGggLTAuMiBsIDAuMiwxMy4zIGMgMCwwLjIgLTAuMSwwLjMgLTAuMywwLjMgbCAtMy41LDAuMSBjIC0wLjIsMCAtMC4zLC0wLjEgLTAuMywtMC4zIHoiIGNsYXNzPSJ0ZXh0Ii8+JiN4YTsJCTxwYXRoIGlkPSJwYXRoMTUiIGQ9Im0gMjExLjQsNDAuOCBjIDAsLTAuMiAwLjIsLTAuMyAwLjMsLTAuMyBsIDMuOSwwLjMgYyAwLjIsMCAwLjMsMC4yIDAuMywwLjMgbCAtMS44LDIwLjUgYyAwLDAuMiAtMC4yLDAuMyAtMC4zLDAuMyBsIC0zLjksLTAuMyBjIC0wLjIsMCAtMC4zLC0wLjIgLTAuMywtMC4zIHoiIGNsYXNzPSJ0ZXh0Ii8+JiN4YTsJCTxwYXRoIGlkPSJwYXRoMTYiIGQ9Im0gMjIzLjEsNjMuMiBjIC0wLjIsMCAtMC4zLC0wLjIgLTAuMywtMC40IGwgLTIuOSwtMjEuNCBjIDAsLTAuMiAwLjEsLTAuMyAwLjMsLTAuMyBsIDQsMC43IGMgMC4yLDAgMC4zLDAuMiAwLjMsMC40IGwgMS43LDE0LjQgaCAwLjEgbCA2LjUsLTEyLjkgYyAwLjEsLTAuMiAwLjIsLTAuMyAwLjUsLTAuMiBsIDMuOSwwLjcgYyAwLjIsMCAwLjMsMC4yIDAuMiwwLjQgbCAtMTAuMywxOSBjIC0wLjEsMC4yIC0wLjIsMC4zIC0wLjQsMC4yIHoiIGNsYXNzPSJ0ZXh0Ii8+JiN4YTsJCTxwYXRoIGlkPSJwYXRoMTciIGQ9Im0gMjQxLjYsNDUuOCBjIDAuMSwtMC4yIDAuMiwtMC4zIDAuNCwtMC4yIGwgMTIuOSw0LjEgYyAwLjIsMC4xIDAuMywwLjIgMC4yLDAuNCBsIC0xLDMuMiBjIC0wLjEsMC4yIC0wLjIsMC4zIC0wLjQsMC4yIEwgMjQ1LDUwLjcgYyAtMC4xLDAgLTAuMiwwIC0wLjIsMC4xIGwgLTEuMyw0IGMgMCwwLjEgMCwwLjIgMC4xLDAuMiBsIDcuMiwyLjMgYyAwLjIsMC4xIDAuMywwLjIgMC4yLDAuNCBsIC0xLDMuMSBjIC0wLjEsMC4yIC0wLjIsMC4zIC0wLjQsMC4yIGwgLTcuMiwtMi4zIGMgLTAuMSwwIC0wLjIsMCAtMC4yLDAuMSBsIC0xLjMsNC4yIGMgMCwwLjEgMCwwLjIgMC4xLDAuMiBsIDguNywyLjggYyAwLjIsMC4xIDAuMywwLjIgMC4yLDAuNCBsIC0xLDMuMiBjIC0wLjEsMC4yIC0wLjIsMC4zIC0wLjQsMC4yIGwgLTEyLjksLTQuMSBjIC0wLjIsLTAuMSAtMC4zLC0wLjIgLTAuMiwtMC40IHoiIGNsYXNzPSJ0ZXh0Ii8+JiN4YTsJCTxwYXRoIGlkPSJwYXRoMTgiIGQ9Im0gMjYxLjksNzUuOSBjIC0wLjMsLTAuMSAtMC4zLC0wLjIgLTAuMywtMC41IFYgNjYuOCBMIDI1OSw2NS42IGMgLTAuMSwtMC4xIC0wLjIsMCAtMC4yLDAuMSBsIC0zLjIsNi44IGMgLTAuMSwwLjIgLTAuMiwwLjIgLTAuNCwwLjEgbCAtMy42LC0xLjcgYyAtMC4yLC0wLjEgLTAuMiwtMC4yIC0wLjEsLTAuNCBsIDguNywtMTguNiBjIDAuMSwtMC4yIDAuMiwtMC4yIDAuNCwtMC4xIGwgNy42LDMuNiBjIDMuOSwxLjggNS4zLDUuNSAzLjcsOSAtMS4yLDIuNCAtMy40LDMuOCAtNS45LDMuNyBsIDAuMiw5LjMgYyAwLDAuMiAtMC4yLDAuMyAtMC40LDAuMiB6IG0gNS45LC0xMy4zIGMgMC43LC0xLjQgMC4xLC0yLjggLTEuNSwtMy42IGwgLTMuNCwtMS42IGMgLTAuMSwtMC4xIC0wLjIsMCAtMC4yLDAuMSBsIC0yLjEsNC40IGMgLTAuMSwwLjEgMCwwLjIgMC4xLDAuMiBsIDMuNCwxLjYgYyAxLjYsMC44IDMsMC40IDMuNywtMS4xIHoiIGNsYXNzPSJ0ZXh0Ii8+JiN4YTsJCTxwYXRoIGlkPSJwYXRoMTkiIGQ9Im0gMjY4LjcsNzYuNSBjIDAsLTAuMiAwLC0wLjQgMC4zLC0wLjUgbCAzLjUsLTEgYyAwLjIsLTAuMSAwLjMsMCAwLjQsMC4yIDAuNiwxLjcgMS42LDMuNiAzLjUsNC44IDEuOSwxLjIgMy41LDEgNC4zLC0wLjIgMC43LC0xIDAuNSwtMi4xIC0xLjUsLTMuOCBsIC0wLjksLTAuNyBjIC0zLjMsLTIuOCAtNC4yLC01LjggLTIuMiwtOSAyLjEsLTMuMyA2LC0zLjggOS44LC0xLjQgMi40LDEuNSA0LjEsMy42IDQuOCw1LjggMC4xLDAuMiAwLDAuMyAtMC4yLDAuNCBsIC0zLjEsMS4zIGMgLTAuMiwwLjEgLTAuMywwIC0wLjQsLTAuMiAtMC44LC0xLjggLTEuOCwtMy4xIC0zLjIsLTQgLTEuNiwtMSAtMi45LC0wLjcgLTMuNiwwLjQgLTAuNywxIC0wLjMsMi4xIDEuNSwzLjcgbCAwLjksMC43IGMgMy4zLDIuOSA0LjIsNS44IDIuMSw5IC0yLjEsMy4yIC02LDQuMSAtMTAuNiwxLjEgLTIuOSwtMS42IC00LjksLTQuNCAtNS40LC02LjYgeiIgY2xhc3M9InRleHQiLz4mI3hhOwkJPHBhdGggaWQ9InBhdGgyMCIgZD0ibSAzMDAuNyw3Ni43IGMgMC4yLC0wLjEgMC4zLC0wLjEgMC41LDAgbCAzLDIuNSBjIDAuMiwwLjEgMC4yLDAuMyAwLjEsMC41IGwgLTcuOSwyMC4yIGMgLTAuMSwwLjIgLTAuMiwwLjIgLTAuNCwwLjEgbCAtMy4xLC0yLjYgYyAtMC4yLC0wLjEgLTAuMiwtMC4zIC0wLjEsLTAuNSBsIDEuNSwtMy42IC01LjYsLTQuOCAtMy4zLDIgYyAtMC4yLDAuMSAtMC4zLDAuMSAtMC41LDAgbCAtMy4xLC0yLjYgYyAtMC4yLC0wLjEgLTAuMSwtMC4zIDAsLTAuNCB6IG0gLTQuOCwxMi45IDMsLTcuMiAtMC4xLC0wLjEgLTYuNiw0LjEgeiIgY2xhc3M9InRleHQiLz4mI3hhOwkJPHBhdGggaWQ9InBhdGgyMSIgZD0ibSAzMTIuOCw4Ny43IGMgMC4xLC0wLjEgMC4zLC0wLjEgMC40LDAgbCAyLjYsMi45IGMgMC4xLDAuMSAwLjEsMC4zIDAsMC40IGwgLTEyLjMsMTEuMSBjIC0wLjEsMC4xIC0wLjEsMC4yIDAsMC4zIGwgNi4yLDYuOSBjIDAuMSwwLjEgMC4xLDAuMyAwLDAuNCBsIC0yLjYsMi4zIGMgLTAuMSwwLjEgLTAuMywwLjEgLTAuNCwwIGwgLTkuMiwtMTAuMiBjIC0wLjEsLTAuMSAtMC4xLC0wLjMgMCwtMC40IHoiIGNsYXNzPSJ0ZXh0Ii8+JiN4YTsJCTxwYXRoIGlkPSJwYXRoMjIiIGQ9Im0gMzE4LjYsMTI5LjYgYyAtMC4xLC0wLjIgLTAuMSwtMC40IDAsLTAuNiBsIDQuNywtNy4yIC0xLjUsLTIuNCBjIC0wLjEsLTAuMSAtMC4yLC0wLjEgLTAuMywtMC4xIGwgLTYuNCw0IGMgLTAuMiwwLjEgLTAuMywwLjEgLTAuNCwtMC4xIGwgLTIuMSwtMy40IGMgLTAuMSwtMC4yIC0wLjEsLTAuMyAwLjEsLTAuNCBsIDE3LjUsLTEwLjggYyAwLjIsLTAuMSAwLjMsLTAuMSAwLjQsMC4xIGwgNC40LDcuMiBjIDIuMywzLjcgMS41LDcuNSAtMS44LDkuNiAtMi4zLDEuNCAtNC45LDEuMyAtNywtMC4xIGwgLTQuOSw3LjkgYyAtMC4xLDAuMiAtMC4zLDAuMiAtMC40LDAgeiBtIDEyLjMsLTcuOSBjIDEuMywtMC44IDEuNiwtMi4zIDAuNywtMy44IGwgLTIsLTMuMiBjIC0wLjEsLTAuMSAtMC4yLC0wLjEgLTAuMywtMC4xIGwgLTQuMiwyLjYgYyAtMC4xLDAuMSAtMC4xLDAuMiAtMC4xLDAuMyBsIDIsMy4yIGMgMSwxLjQgMi41LDEuOCAzLjksMSB6IiBjbGFzcz0idGV4dCIvPiYjeGE7CQk8cGF0aCBpZD0icGF0aDIzIiBkPSJtIDM0MC44LDEyNi44IGMgMC4yLC0wLjEgMC4zLDAgMC40LDAuMSBsIDEuNywzLjUgYyAwLjEsMC4yIDAsMC4zIC0wLjEsMC40IGwgLTE4LjQsOSBjIC0wLjIsMC4xIC0wLjMsMCAtMC40LC0wLjEgbCAtMS43LC0zLjUgYyAtMC4xLC0wLjIgMCwtMC4zIDAuMSwtMC40IHoiIGNsYXNzPSJ0ZXh0Ii8+JiN4YTsJCTxwYXRoIGlkPSJwYXRoMjQiIGQ9Im0gMzM1LjQsMTM5IGMgMi45LC0xLjEgNC4xLC0xLjQgNS42LC0xLjUgMy42LC0wLjIgNi4yLDIgNy41LDUuNSAxLjQsMy43IDAuNCw2LjggLTEuNiw4LjYgLTAuMSwwLjIgLTAuMywwLjIgLTAuNSwwIGwgLTIuNSwtMi42IGMgLTAuMSwtMC4yIC0wLjEsLTAuMyAwLC0wLjUgMSwtMS4zIDEuNCwtMi41IDAuOCwtNC4yIC0wLjYsLTEuNyAtMS45LC0yLjQgLTMuNCwtMi40IC0wLjgsMCAtMS44LDAuMyAtNC4zLDEuMiAtMi42LDEgLTMuNSwxLjQgLTQuMSwxLjkgLTEuMiwwLjkgLTEuNiwyLjMgLTEsNCAwLjYsMS41IDEuOCwyLjUgMy4yLDIuNCAwLjUsMCAxLjIsLTAuMiAyLC0wLjUgMC4xLDAgMC4yLC0wLjEgMC4xLC0wLjIgbCAtMSwtMi43IGMgLTAuMSwtMC4yIDAsLTAuMyAwLjIsLTAuNCBsIDIuOCwtMSBjIDAuMiwtMC4xIDAuMywwIDAuNCwwLjIgbCAyLjUsNi44IGMgMC4xLDAuMiAwLDAuMyAtMC4yLDAuNCBsIC0xLjYsMC42IGMgLTEuOCwwLjYgLTMuNCwxLjEgLTQuNiwxLjIgLTMuNSwwLjIgLTYuMywtMS45IC03LjYsLTUuNCAtMS4zLC0zLjUgLTAuNywtNi45IDIuMSwtOS4xIDEuMiwtMC42IDIuMywtMS4yIDUuMiwtMi4zIHoiIGNsYXNzPSJ0ZXh0Ii8+JiN4YTsJCTxwYXRoIGlkPSJwYXRoMjUiIGQ9Im0gMzUyLjQsMTU2LjUgYyAwLjIsMCAwLjMsMC4xIDAuNCwwLjIgbCAwLjgsMy45IGMgMCwwLjIgLTAuMSwwLjMgLTAuMiwwLjQgbCAtNy44LDEuNyBjIC0wLjEsMCAtMC4yLDAuMSAtMC4xLDAuMiBsIDEuNSw2LjcgYyAwLDAuMSAwLjEsMC4yIDAuMiwwLjEgTCAzNTUsMTY4IGMgMC4yLDAgMC4zLDAuMSAwLjQsMC4yIGwgMC44LDMuOSBjIDAsMC4yIC0wLjEsMC4zIC0wLjIsMC40IGwgLTIwLjEsNC40IGMgLTAuMiwwIC0wLjMsLTAuMSAtMC40LC0wLjIgbCAtMC44LC0zLjkgYyAwLC0wLjIgMC4xLC0wLjMgMC4yLC0wLjQgbCA4LC0xLjcgYyAwLjEsMCAwLjIsLTAuMSAwLjEsLTAuMiBsIC0xLjUsLTYuNyBjIDAsLTAuMSAtMC4xLC0wLjIgLTAuMiwtMC4xIGwgLTgsMS43IGMgLTAuMiwwIC0wLjMsLTAuMSAtMC40LC0wLjIgbCAtMC44LC0zLjkgYyAwLC0wLjIgMC4xLC0wLjMgMC4yLC0wLjQgeiIgY2xhc3M9InRleHQiLz4mI3hhOwkJPHBhdGggaWQ9InBhdGgyNiIgZD0ibSAzMzYuMywxODUgYyAwLC0wLjIgMC4xLC0wLjMgMC4zLC0wLjMgbCAxNi41LC0xLjMgYyAwLjEsMCAwLjIsLTAuMSAwLjIsLTAuMiBsIC0wLjQsLTUuMyBjIDAsLTAuMiAwLjEsLTAuMyAwLjMsLTAuMyBsIDMuNCwtMC4zIGMgMC4yLDAgMC4zLDAuMSAwLjMsMC4zIGwgMS4zLDE1LjYgYyAwLDAuMiAtMC4xLDAuMyAtMC4zLDAuMyBsIC0zLjQsMC4zIGMgLTAuMiwwIC0wLjMsLTAuMSAtMC4zLC0wLjMgbCAtMC40LC01LjMgYyAwLC0wLjEgLTAuMSwtMC4yIC0wLjIsLTAuMiBsIC0xNi41LDEuMyBjIC0wLjIsMCAtMC4zLC0wLjEgLTAuMywtMC4zIHoiIGNsYXNzPSJ0ZXh0Ii8+JiN4YTsJPC9nPiYjeGE7CTxnIGlkPSJtdWxsdmFkLXZwbiI+JiN4YTsJCTxwYXRoIGlkPSJwYXRoMjciIGQ9Im0gMTAzLjgsMjk1LjkgYyAwLjEsLTAuMiAwLjMsLTAuMiAwLjUsMCBsIDMuMywyLjggYyAwLjIsMC4yIDAuMywwLjQgMC4yLDAuNyBsIC00LjMsMTQuOCAwLjEsMC4xIDEzLjgsLTYuOCBjIDAuMiwtMC4xIDAuNSwtMC4xIDAuNywwLjEgbCAzLjIsMi43IGMgMC4yLDAuMSAwLjIsMC4zIDAsMC41IGwgLTE1LjUsMTguMyBjIC0wLjEsMC4yIC0wLjMsMC4yIC0wLjUsMCBsIC0zLjEsLTIuNyBjIC0wLjIsLTAuMSAtMC4yLC0wLjMgMCwtMC41IGwgOSwtMTAuNiAtMC4xLC0wLjEgLTEwLjIsNSBjIC0wLjMsMC4yIC0wLjYsMC4xIC0wLjgsLTAuMSBsIC0xLjksLTEuNiBDIDk4LDMxOC4zIDk3LjksMzE4IDk4LDMxNy43IGwgMy4yLC0xMC45IC0wLjEsLTAuMSAtOSwxMC42IGMgLTAuMSwwLjIgLTAuMywwLjIgLTAuNSwwIGwgLTMuMSwtMi43IGMgLTAuMiwtMC4xIC0wLjIsLTAuMyAwLC0wLjUgeiIgY2xhc3M9InRleHQiLz4mI3hhOwkJPHBhdGggaWQ9InBhdGgyOCIgZD0ibSAxMTYuNCwzMjUuNyA3LjcsLTEzLjIgYyAwLjEsLTAuMiAwLjMsLTAuMiAwLjUsLTAuMSBsIDQsMi4zIGMgMC4yLDAuMSAwLjIsMC4zIDAuMSwwLjUgbCAtNy43LDEzLjMgYyAtMS41LDIuNSAtMC45LDQuOCAxLjMsNi4xIDIuMSwxLjIgNC40LDAuNiA1LjksLTEuOSBsIDcuNywtMTMuMyBjIDAuMSwtMC4yIDAuMywtMC4yIDAuNSwtMC4xIGwgNCwyLjMgYyAwLjIsMC4xIDAuMiwwLjMgMC4xLDAuNSBsIC03LjcsMTMuMiBjIC0zLjEsNS4zIC04LjIsNi4yIC0xMi45LDMuNSAtNC44LC0yLjkgLTYuNiwtNy44IC0zLjUsLTEzLjEgeiIgY2xhc3M9InRleHQiLz4mI3hhOwkJPHBhdGggaWQ9InBhdGgyOSIgZD0ibSAxNDMuNiwzMjMuMyBjIDAuMSwtMC4yIDAuMywtMC4zIDAuNSwtMC4yIGwgNC4zLDEuNyBjIDAuMiwwLjEgMC4zLDAuMyAwLjIsMC41IGwgLTcuMSwxOC4xIGMgLTAuMSwwLjEgMCwwLjIgMC4xLDAuMyBsIDEwLjIsNCBjIDAuMiwwLjEgMC4zLDAuMyAwLjIsMC41IGwgLTEuNSwzLjggYyAtMC4xLDAuMiAtMC4zLDAuMyAtMC41LDAuMiBsIC0xNSwtNS45IGMgLTAuMiwtMC4xIC0wLjMsLTAuMyAtMC4yLC0wLjUgeiIgY2xhc3M9InRleHQiLz4mI3hhOwkJPHBhdGggaWQ9InBhdGgzMCIgZD0ibSAxNjEuMiwzMjkuOSBjIDAuMSwtMC4yIDAuMiwtMC4zIDAuNCwtMC4zIGwgNC41LDEuMSBjIDAuMiwwLjEgMC4zLDAuMiAwLjMsMC40IGwgLTQuNSwxOC45IGMgMCwwLjEgMCwwLjIgMC4yLDAuMyBsIDEwLjYsMi41IGMgMC4yLDAuMSAwLjMsMC4yIDAuMywwLjQgbCAtMC45LDMuOSBjIC0wLjEsMC4yIC0wLjIsMC4zIC0wLjQsMC4zIEwgMTU2LDM1My43IGMgLTAuMiwtMC4xIC0wLjMsLTAuMiAtMC4zLC0wLjQgeiIgY2xhc3M9InRleHQiLz4mI3hhOwkJPHBhdGggaWQ9InBhdGgzMSIgZD0ibSAxODAuOCwzNTguNiBjIC0wLjMsMCAtMC40LC0wLjIgLTAuNCwtMC40IGwgLTUuMywtMjQuNyBjIDAsLTAuMyAwLjEsLTAuNCAwLjQsLTAuNCBsIDQuNywwLjUgYyAwLjMsMCAwLjQsMC4yIDAuNCwwLjQgbCAzLjIsMTYuNyBoIDAuMSBsIDYuNSwtMTUuNiBjIDAuMSwtMC4yIDAuMywtMC4zIDAuNSwtMC4zIGwgNC43LDAuNSBjIDAuMiwwIDAuMywwLjIgMC4yLDAuNCBsIC0xMC40LDIzIGMgLTAuMSwwLjIgLTAuMywwLjMgLTAuNSwwLjMgeiIgY2xhc3M9InRleHQiLz4mI3hhOwkJPHBhdGggaWQ9InBhdGgzMiIgZD0ibSAyMDIuNSwzMzUuMyBjIDAuMSwtMC4yIDAuMiwtMC40IDAuNSwtMC40IGwgNC42LC0wLjIgYyAwLjMsMCAwLjQsMC4xIDAuNSwwLjMgbCA5LjIsMjMuNyBjIDAuMSwwLjIgMCwwLjQgLTAuMiwwLjQgbCAtNC43LDAuMiBjIC0wLjMsMCAtMC40LC0wLjEgLTAuNSwtMC4zIGwgLTEuNiwtNC4zIC04LjcsMC4zIC0xLjIsNC40IGMgLTAuMSwwLjMgLTAuMiwwLjQgLTAuNSwwLjQgbCAtNC44LDAuMiBjIC0wLjMsMCAtMC4zLC0wLjEgLTAuMywtMC40IHogbSA2LjEsMTUgLTMuMSwtOC41IGggLTAuMSBsIC0yLjUsOC44IHoiIGNsYXNzPSJ0ZXh0Ii8+JiN4YTsJCTxwYXRoIGlkPSJwYXRoMzMiIGQ9Im0gMjE3LjksMzM0LjUgYyAwLC0wLjIgMC4xLC0wLjQgMC4zLC0wLjQgbCA5LC0xLjggYyA0LjIsLTAuOCA3LjYsMC40IDkuNSwzLjggMC43LDEuMyAxLjIsMi42IDIsNi41IDAuOCwzLjkgMC44LDUuNCAwLjcsNi44IC0wLjUsMy45IC0zLDYuMyAtNy4zLDcuMSBsIC05LDEuOCBjIC0wLjIsMCAtMC40LC0wLjEgLTAuNCwtMC4zIHogbSA5LjMsMTguMSAyLjcsLTAuNSBjIDIuNCwtMC41IDMuNywtMS41IDQsLTMuNiAwLjEsLTAuOCAwLjEsLTEuNyAtMC42LC00LjkgLTAuNiwtMy4xIC0xLC00IC0xLjMsLTQuNyAtMSwtMS44IC0yLjYsLTIuMyAtNSwtMS44IGwgLTIuNywwLjUgYyAtMC4xLDAgLTAuMiwwLjEgLTAuMiwwLjMgbCAyLjksMTQuNSBjIDAsMC4yIDAuMSwwLjMgMC4yLDAuMiB6IiBjbGFzcz0idGV4dCIvPiYjeGE7CQk8cGF0aCBpZD0icGF0aDM0IiBkPSJtIDI2MS4yLDM0Ny42IGMgLTAuMiwwLjEgLTAuNCwwIC0wLjYsLTAuMSBsIC0xNi43LC0xOC45IGMgLTAuMiwtMC4yIC0wLjEsLTAuNCAwLjEsLTAuNSBsIDQuMywtMS45IGMgMC4yLC0wLjEgMC40LC0wLjEgMC42LDAuMSBsIDEwLjksMTMgaCAwLjEgbCAtMiwtMTYuOCBjIDAsLTAuMyAwLjEsLTAuNCAwLjMsLTAuNSBsIDQuMywtMS45IGMgMC4yLC0wLjEgMC40LDAgMC40LDAuMyBsIDIuMiwyNS4xIGMgMCwwLjIgLTAuMSwwLjQgLTAuMywwLjUgeiIgY2xhc3M9InRleHQiLz4mI3hhOwkJPHBhdGggaWQ9InBhdGgzNSIgZD0ibSAyNzcuNiwzNDAgYyAtMC4yLDAuMSAtMC40LDAuMSAtMC41LC0wLjEgbCAtMTIuNywtMjAuNCBjIC0wLjEsLTAuMiAtMC4xLC0wLjQgMC4xLC0wLjUgbCA4LjEsLTUuMSBjIDQuNiwtMi44IDksLTEuOCAxMS41LDIuMiAyLjUsNCAxLjQsOC41IC0zLjEsMTEuMyBsIC0zLjcsMi4zIGMgLTAuMSwwLjEgLTAuMSwwLjIgLTAuMSwwLjMgbCA0LjQsNyBjIDAuMSwwLjIgMC4xLDAuNCAtMC4xLDAuNSB6IG0gMiwtMjEuMSBjIC0xLjEsLTEuNyAtMi45LC0yLjEgLTQuOCwtMC45IGwgLTMuNSwyLjIgYyAtMC4xLDAuMSAtMC4xLDAuMiAtMC4xLDAuMyBsIDMuMyw1LjMgYyAwLjEsMC4xIDAuMiwwLjEgMC4zLDAuMSBsIDMuNSwtMi4yIGMgMiwtMS4yIDIuNCwtMy4xIDEuMywtNC44IHoiIGNsYXNzPSJ0ZXh0Ii8+JiN4YTsJCTxwYXRoIGlkPSJwYXRoMzYiIGQ9Im0gMjgxLjgsMzA4LjQgYyAtMC4xLC0wLjIgLTAuMSwtMC40IDAsLTAuNSBsIDMuMywtMi45IGMgMC4yLC0wLjIgMC40LC0wLjIgMC43LC0wLjEgbCAxNi44LDYgMC4xLC0wLjEgLTEwLjIsLTExLjcgYyAtMC4xLC0wLjIgLTAuMSwtMC40IDAsLTAuNSBsIDMuMSwtMi43IGMgMC4yLC0wLjEgMC40LC0wLjEgMC41LDAgbCAxNS44LDE4LjEgYyAwLjEsMC4yIDAuMSwwLjQgMCwwLjUgbCAtMy4zLDIuOCBjIC0wLjIsMC4yIC0wLjQsMC4yIC0wLjcsMC4xIGwgLTE2LjgsLTYgLTAuMSwwLjEgMTAuMiwxMS43IGMgMC4xLDAuMiAwLjEsMC40IDAsMC41IGwgLTMuMSwyLjcgYyAtMC4yLDAuMSAtMC40LDAuMSAtMC41LDAgeiIgY2xhc3M9InRleHQiLz4mI3hhOwk8L2c+JiN4YTs8L2c+JiN4YTs8L3N2Zz4=;" parent="1" vertex="1">
          <mxGeometry x="626" y="-466.25" width="152.57" height="154.5" as="geometry" />
        </mxCell>
        <mxCell id="LWahpmW2nLwz6pXJYOI1-16" value="" style="group" parent="1" vertex="1" connectable="0">
          <mxGeometry x="920" y="-493.25" width="431.25" height="208.5" as="geometry" />
        </mxCell>
        <mxCell id="LWahpmW2nLwz6pXJYOI1-7" value="" style="shape=image;verticalLabelPosition=bottom;labelBackgroundColor=default;verticalAlign=top;aspect=fixed;imageAspect=0;image=data:image/svg+xml,PHN2ZyB4bWxucz0iaHR0cDovL3d3dy53My5vcmcvMjAwMC9zdmciIGhlaWdodD0iMTQ4LjE3OTk5IiB3aWR0aD0iNjg5Ljk3OTk4IiB2aWV3Qm94PSIwIDAgNjg5Ljk3OTk3IDE0OC4xNzk5OSIgdmVyc2lvbj0iMS4xIiBkYXRhLW5hbWU9ImthdG1hbiAxIiBpZD0ia2F0bWFuXzEiPiYjeGE7ICAmI3hhOyAgPGRlZnMgaWQ9ImRlZnMxNDUiPiYjeGE7ICAgIDxzdHlsZSBpZD0ic3R5bGUxNDMiPiYjeGE7ICAgICAgLmNscy0xIHsmI3hhOyAgICAgICAgZmlsbDogIzBmMGYwZDsmI3hhOyAgICAgIH0mI3hhOyYjeGE7ICAgICAgLmNscy0xLCAuY2xzLTIgeyYjeGE7ICAgICAgICBzdHJva2Utd2lkdGg6IDBweDsmI3hhOyAgICAgIH0mI3hhOyYjeGE7ICAgICAgLmNscy0yIHsmI3hhOyAgICAgICAgZmlsbDogI2Q5Nzc1NzsmI3hhOyAgICAgIH0mI3hhOyAgICA8L3N0eWxlPiYjeGE7ICA8L2RlZnM+JiN4YTsgIDxnIHRyYW5zZm9ybT0idHJhbnNsYXRlKC03NS45NiwtMjIzLjUzKSIgaWQ9ImczMTQiPiYjeGE7ICAgIDxwYXRoIGlkPSJwYXRoMTQ3IiBzaGFwZS1yZW5kZXJpbmc9Im9wdGltaXplUXVhbGl0eSIgZD0ibSAxMDUuMDEsMzIyLjA3IDI5LjE0LC0xNi4zNSAwLjQ5LC0xLjQyIC0wLjQ5LC0wLjc5IGggLTEuNDIgbCAtNC44NywtMC4zIC0xNi42NSwtMC40NSAtMTQuNDQsLTAuNiAtMTMuOTksLTAuNzUgLTMuNTIsLTAuNzUgLTMuMywtNC4zNSAwLjM0LC0yLjE3IDIuOTYsLTEuOTkgNC4yNCwwLjM3IDkuMzcsMC42NCAxNC4wNiwwLjk3IDEwLjIsMC42IDE1LjExLDEuNTcgaCAyLjQgbCAwLjM0LC0wLjk3IC0wLjgyLC0wLjYgLTAuNjQsLTAuNiAtMTQuNTUsLTkuODYgLTE1Ljc1LC0xMC40MiAtOC4yNSwtNiAtNC40NiwtMy4wNCAtMi4yNSwtMi44NSAtMC45NywtNi4yMiA0LjA1LC00LjQ2IDUuNDQsMC4zNyAxLjM5LDAuMzcgNS41MSw0LjI0IDExLjc3LDkuMTEgMTUuMzcsMTEuMzIgMi4yNSwxLjg3IDAuOSwtMC42NCAwLjExLC0wLjQ1IC0xLjAxLC0xLjY5IC04LjM2LC0xNS4xMSAtOC45MiwtMTUuMzcgLTMuOTcsLTYuMzcgLTEuMDUsLTMuODIgYyAtMC4zNywtMS41NyAtMC42NCwtMi44OSAtMC42NCwtNC41IGwgNC42MSwtNi4yNiAyLjU1LC0wLjgyIDYuMTUsMC44MiAyLjU5LDIuMjUgMy44Miw4Ljc0IDYuMTksMTMuNzYgOS42LDE4LjcxIDIuODEsNS41NSAxLjUsNS4xNCAwLjU2LDEuNTcgaCAwLjk3IHYgLTAuOSBsIDAuNzksLTEwLjU0IDEuNDYsLTEyLjk0IDEuNDIsLTE2LjY1IDAuNDksLTQuNjkgMi4zMiwtNS42MiA0LjYxLC0zLjA0IDMuNiwxLjcyIDIuOTYsNC4yNCAtMC40MSwyLjc0IC0xLjc2LDExLjQ0IC0zLjQ1LDE3LjkyIC0yLjI1LDEyIGggMS4zMSBsIDEuNSwtMS41IDYuMDcsLTguMDYgMTAuMiwtMTIuNzUgNC41LC01LjA2IDUuMjUsLTUuNTkgMy4zNywtMi42NiBoIDYuMzcgbCA0LjY5LDYuOTcgLTIuMSw3LjIgLTYuNTYsOC4zMiAtNS40NCw3LjA1IC03LjgsMTAuNSAtNC44Nyw4LjQgMC40NSwwLjY3IDEuMTYsLTAuMTEgMTcuNjIsLTMuNzUgOS41MiwtMS43MiAxMS4zNiwtMS45NSA1LjE0LDIuNCAwLjU2LDIuNDQgLTIuMDIsNC45OSAtMTIuMTUsMyAtMTQuMjUsMi44NSAtMjEuMjIsNS4wMiAtMC4yNiwwLjE5IDAuMywwLjM3IDkuNTYsMC45IDQuMDksMC4yMiBoIDEwLjAxIGwgMTguNjQsMS4zOSA0Ljg3LDMuMjIgMi45MiwzLjk0IC0wLjQ5LDMgLTcuNSwzLjgyIC0xMC4xMiwtMi40IC0yMy42MiwtNS42MiAtOC4xLC0yLjAyIGggLTEuMTIgdiAwLjY3IGwgNi43NSw2LjYgMTIuMzcsMTEuMTcgMTUuNDksMTQuNCAwLjc5LDMuNTYgLTEuOTksMi44MSAtMi4xLC0wLjMgLTEzLjYxLC0xMC4yNCAtNS4yNSwtNC42MSAtMTEuODksLTEwLjAxIGggLTAuNzkgdiAxLjA1IGwgMi43NCw0LjAxIDE0LjQ3LDIxLjc1IDAuNzUsNi42NyAtMS4wNSwyLjE3IC0zLjc1LDEuMzEgLTQuMTIsLTAuNzUgLTguNDcsLTExLjg5IC04Ljc0LC0xMy4zOSAtNy4wNSwtMTIgLTAuODYsMC40OSAtNC4xNiw0NC44MSAtMS45NSwyLjI5IC00LjUsMS43MiAtMy43NSwtMi44NSAtMS45OSwtNC42MSAxLjk5LC05LjExIDIuNCwtMTEuODkgMS45NSwtOS40NSAxLjc2LC0xMS43NCAxLjA1LC0zLjkgLTAuMDcsLTAuMjYgLTAuODYsMC4xMSAtOC44NSwxMi4xNSAtMTMuNDYsMTguMTkgLTEwLjY1LDExLjQgLTIuNTUsMS4wMSAtNC40MiwtMi4yOSAwLjQxLC00LjA5IDIuNDcsLTMuNjQgMTQuNzQsLTE4Ljc1IDguODksLTExLjYyIDUuNzQsLTYuNzEgLTAuMDQsLTAuOTcgaCAtMC4zNCBsIC0zOS4xNSwyNS40MiAtNi45NywwLjkgLTMsLTIuODEgMC4zNywtNC42MSAxLjQyLC0xLjUgMTEuNzcsLTguMSAtMC4wNCwwLjA0IHoiIGNsYXNzPSJjbHMtMiIvPiYjeGE7ICAgIDxwYXRoIGlkPSJwYXRoMTQ5IiBzaGFwZS1yZW5kZXJpbmc9Im9wdGltaXplUXVhbGl0eSIgZD0ibSAzMTcuNzMsMzQ5LjMzIGMgLTE4LjgyLDAgLTMxLjY5LC0xMC41IC0zNy43NiwtMjYuNjYgLTMuMTcsLTguNDIgLTQuNzQsLTE3LjM2IC00LjYxLC0yNi4zNiAwLC0yNy4xMSAxMi4xNSwtNDUuOTQgMzksLTQ1Ljk0IDE4LjA0LDAgMjkuMTcsNy44NyAzNS41MSwyNi42NiBoIDcuNzIgbCAtMS4wNSwtMjUuOTEgYyAtMTAuOCwtNi45NyAtMjQuMywtMTAuNSAtNDAuNzIsLTEwLjUgLTIzLjE0LDAgLTQyLjgyLDEwLjM1IC01My43NywyOS4wMiAtNS42Niw5Ljg2IC04LjUzLDIxLjA3IC04LjMyLDMyLjQ0IDAsMjAuNzQgOS43OSwzOS4xMSAyOC4xNiw0OS4zMSAxMC4wNiw1LjM3IDIxLjM0LDguMDQgMzIuNzQsNy43MiAxNy45MiwwIDMyLjE0LC0zLjQxIDQ0Ljc0LC05LjM3IGwgMy4yNiwtMjguNTcgaCAtNy44NyBjIC00LjcyLDEzLjA1IC0xMC4zNSwyMC44OSAtMTkuNjksMjUuMDUgLTQuNTcsMi4wNiAtMTAuMzUsMy4xMSAtMTcuMzIsMy4xMSB6IG0gODEuMTgsLTk4Ljk2IDAuNzUsLTEyLjc1IGggLTUuMzIgbCAtMjMuNyw3LjEyIHYgMy44NiBsIDEwLjUsNC44NyB2IDg5LjE3IGMgMCw2LjA3IC0zLjExLDcuNDIgLTExLjI1LDguNDQgdiA2LjUyIGggNDAuMzEgdiAtNi41MiBjIC04LjE3LC0xLjAxIC0xMS4yNSwtMi4zNiAtMTEuMjUsLTguNDQgViAyNTAuNCBsIC0wLjA0LC0wLjA0IHogbSAxNjAuMzEsMTA4Ljc1IGggMy4xMSBsIDI3LjI2LC01LjE3IHYgLTYuNjcgbCAtMy44MiwtMC4zIGMgLTYuMzcsLTAuNiAtOC4wMiwtMS45MSAtOC4wMiwtNy4xMiB2IC00Ny41NSBsIDAuNzUsLTE1LjI2IGggLTQuMzEgbCAtMjUuNzYsMy43MSB2IDYuNTIgbCAyLjUxLDAuNDUgYyA2Ljk3LDEuMDEgOS4wNCwyLjk2IDkuMDQsNy44NCB2IDQyLjM3IGMgLTYuNjcsNS4xNyAtMTMuMDUsOC40NCAtMjAuNjIsOC40NCAtOC40LDAgLTEzLjYxLC00LjI3IC0xMy42MSwtMTQuMjUgdiAtMzkuNzkgbCAwLjc1LC0xNS4yNiBoIC00LjQyIGwgLTI1LjgsMy43MSB2IDYuNTIgbCAyLjY2LDAuNDUgYyA2Ljk3LDEuMDEgOS4wNCwyLjk2IDkuMDQsNy44NCB2IDM5LjExIGMgMCwxNi41NyA5LjM3LDI0LjQ1IDI0LjMsMjQuNDUgMTEuNCwwIDIwLjc0LC02LjA3IDI3Ljc1LC0xNC41MSBsIC0wLjc1LDE0LjUxIC0wLjA0LC0wLjA0IHogTSA0ODQuMywzMDYuMzYgYyAwLC0yMS4xOSAtMTEuMjUsLTI5LjMyIC0zMS41NywtMjkuMzIgLTE3LjkyLDAgLTMwLjk0LDcuNDIgLTMwLjk0LDE5LjcyIDAsMy42NyAxLjMxLDYuNDkgMy45Nyw4LjQ0IGwgMTMuNjUsLTEuOCBjIC0wLjYsLTQuMTIgLTAuOSwtNi42NCAtMC45LC03LjY5IDAsLTYuOTcgMy43MSwtMTAuNSAxMS4yNSwtMTAuNSAxMS4xNCwwIDE2Ljc2LDcuODQgMTYuNzYsMjAuNDQgdiA0LjEyIGwgLTI4LjEyLDguNDQgYyAtOS4zNywyLjU1IC0xNC43LDQuNzYgLTE4LjI2LDkuOTQgLTEuODksMy4xNyAtMi44LDYuODIgLTIuNjIsMTAuNSAwLDEyIDguMjUsMjAuNDcgMjIuMzUsMjAuNDcgMTAuMiwwIDE5LjI0LC00LjYxIDI3LjExLC0xMy4zNSAyLjgxLDguNzQgNy4xMiwxMy4zNSAxNC44MSwxMy4zNSA2LjIyLDAgMTEuODUsLTIuNTEgMTYuODcsLTcuNDIgbCAtMS41LC01LjE3IGMgLTIuMTcsMC42IC00LjI3LDAuOSAtNi40OSwwLjkgLTQuMzEsMCAtNi4zNywtMy40MSAtNi4zNywtMTAuMDkgdiAtMzAuOTcgeiBtIC0zNiw0MC43NiBjIC03LjY5LDAgLTEyLjQ1LC00LjQ2IC0xMi40NSwtMTIuMyAwLC01LjMyIDIuNTEsLTguNDQgNy44NywtMTAuMjQgbCAyMi44LC03LjI0IHYgMjEuOSBjIC03LjI3LDUuNTEgLTExLjU1LDcuODcgLTE4LjIyLDcuODcgeiBtIDIzNy4zNiw2LjgyIHYgLTYuNjcgbCAtMy44NiwtMC4zIGMgLTYuMzcsLTAuNiAtNy45OSwtMS45MSAtNy45OSwtNy4xMiB2IC04OS40NyBsIDAuNzUsLTEyLjc1IGggLTUuMzYgbCAtMjMuNyw3LjEyIHYgMy44NiBsIDEwLjUsNC44NyB2IDI5LjMyIGMgLTUuOTEsLTQuMDUgLTEyLjk4LC02LjA4IC0yMC4xNCwtNS43NyAtMjMuNTUsMCAtNDEuOTIsMTcuOTIgLTQxLjkyLDQ0Ljc0IDAsMjIuMDkgMTMuMiwzNy4zNSAzNC45NSwzNy4zNSAxMS4yNSwwIDIxLjA0LC01LjQ3IDI3LjExLC0xMy45NSBsIC0wLjc1LDEzLjk1IGggMy4xNSBsIDI3LjI2LC01LjE3IHYgMCB6IG0gLTQ5LjM1LC02OC4wMiBjIDExLjI1LDAgMTkuNjksNi41MiAxOS42OSwxOC41MiB2IDMzLjc1IGMgLTUuMTgsNS4xNiAtMTIuMjMsOCAtMTkuNTQsNy44NyAtMTYuMTIsMCAtMjQuMywtMTIuNzUgLTI0LjMsLTI5Ljc3IDAsLTE5LjEyIDkuMzQsLTMwLjM3IDI0LjE1LC0zMC4zNyB6IE0gNzQzLjMsMzAyLjggYyAtMi4xLC05LjkgLTguMTcsLTE1LjUyIC0xNi42MSwtMTUuNTIgLTEyLjYsMCAtMjEuMzQsOS40OSAtMjEuMzQsMjMuMSAwLDIwLjE0IDEwLjY1LDMzLjE5IDI3Ljg2LDMzLjE5IDExLjQ4LC0wLjEyIDIyLjA0LC02LjMzIDI3LjcxLC0xNi4zMSBsIDUuMDIsMS4zNSBjIC0yLjI1LDE3LjQ3IC0xOC4wNywzMC41MiAtMzcuNSwzMC41MiAtMjIuOCwwIC0zOC41MSwtMTYuODcgLTM4LjUxLC00MC44NyAwLC0yNCAxNy4wNiwtNDEuMjEgMzkuODYsLTQxLjIxIDE3LjAyLDAgMjkuMDIsMTAuMjQgMzIuODksMjguMDEgbCAtNTkuNCwxOC4yMiB2IC04LjAyIGwgNDAuMDEsLTEyLjQxIHYgLTAuMDQgeiIgY2xhc3M9ImNscy0xIi8+JiN4YTsgIDwvZz4mI3hhOzwvc3ZnPg==;" parent="LWahpmW2nLwz6pXJYOI1-16" vertex="1">
          <mxGeometry y="116" width="431.25" height="92.5" as="geometry" />
        </mxCell>
        <mxCell id="LWahpmW2nLwz6pXJYOI1-8" value="" style="shape=image;verticalLabelPosition=bottom;labelBackgroundColor=default;verticalAlign=top;aspect=fixed;imageAspect=0;image=data:image/svg+xml,PHN2ZyB4bWxucz0iaHR0cDovL3d3dy53My5vcmcvMjAwMC9zdmciIHZpZXdCb3g9IjAgMCAxMTgwIDMyMCI+PHBhdGggZD0ibTM2Ny40NCAxNTMuODRjMCA1Mi4zMiAzMy42IDg4LjggODAuMTYgODguOHM4MC4xNi0zNi40OCA4MC4xNi04OC44LTMzLjYtODguOC04MC4xNi04OC44LTgwLjE2IDM2LjQ4LTgwLjE2IDg4Ljh6bTEyOS42IDBjMCAzNy40NC0yMC40IDYxLjY4LTQ5LjQ0IDYxLjY4cy00OS40NC0yNC4yNC00OS40NC02MS42OCAyMC40LTYxLjY4IDQ5LjQ0LTYxLjY4IDQ5LjQ0IDI0LjI0IDQ5LjQ0IDYxLjY4eiIvPjxwYXRoIGQ9Im02MTQuMjcgMjQyLjY0YzM1LjI4IDAgNTUuNDQtMjkuNzYgNTUuNDQtNjUuNTJzLTIwLjE2LTY1LjUyLTU1LjQ0LTY1LjUyYy0xNi4zMiAwLTI4LjMyIDYuNDgtMzYuMjQgMTUuODR2LTEzLjQ0aC0yOC44djE2OS4yaDI4Ljh2LTU2LjRjNy45MiA5LjM2IDE5LjkyIDE1Ljg0IDM2LjI0IDE1Ljg0em0tMzYuOTYtNjkuMTJjMC0yMy43NiAxMy40NC0zNi43MiAzMS4yLTM2LjcyIDIwLjg4IDAgMzIuMTYgMTYuMzIgMzIuMTYgNDAuMzJzLTExLjI4IDQwLjMyLTMyLjE2IDQwLjMyYy0xNy43NiAwLTMxLjItMTMuMi0zMS4yLTM2LjQ4eiIvPjxwYXRoIGQ9Im03NDcuNjUgMjQyLjY0YzI1LjIgMCA0NS4xMi0xMy4yIDU0LTM1LjI4bC0yNC43Mi05LjM2Yy0zLjg0IDEyLjk2LTE1LjEyIDIwLjE2LTI5LjI4IDIwLjE2LTE4LjQ4IDAtMzEuNDQtMTMuMi0zMy42LTM0LjhoODguMzJ2LTkuNmMwLTM0LjU2LTE5LjQ0LTYyLjE2LTU1LjkyLTYyLjE2cy02MCAyOC41Ni02MCA2NS41MmMwIDM4Ljg4IDI1LjIgNjUuNTIgNjEuMiA2NS41MnptLTEuNDQtMTA2LjhjMTguMjQgMCAyNi44OCAxMiAyNy4xMiAyNS45MmgtNTcuODRjNC4zMi0xNy4wNCAxNS44NC0yNS45MiAzMC43Mi0yNS45MnoiLz48cGF0aCBkPSJtODIzLjk4IDI0MGgyOC44di03My45MmMwLTE4IDEzLjItMjcuNiAyNi4xNi0yNy42IDE1Ljg0IDAgMjIuMDggMTEuMjggMjIuMDggMjYuODh2NzQuNjRoMjguOHYtODMuMDRjMC0yNy4xMi0xNS44NC00NS4zNi00Mi4yNC00NS4zNi0xNi4zMiAwLTI3LjYgNy40NC0zNC44IDE1Ljg0di0xMy40NGgtMjguOHoiLz48cGF0aCBkPSJtMTAxNC4xNyA2Ny42OC02NS4yOCAxNzIuMzJoMzAuNDhsMTQuNjQtMzkuMzZoNzQuNGwxNC44OCAzOS4zNmgzMC45NmwtNjUuMjgtMTcyLjMyem0xNi44IDM0LjA4IDI3LjM2IDcyaC01NC4yNHoiLz48cGF0aCBkPSJtMTE2My42OSA2OC4xOGgtMzAuNzJ2MTcyLjMyaDMwLjcyeiIvPjxwYXRoIGQ9Im0yOTcuMDYgMTMwLjk3YzcuMjYtMjEuNzkgNC43Ni00NS42Ni02Ljg1LTY1LjQ4LTE3LjQ2LTMwLjQtNTIuNTYtNDYuMDQtODYuODQtMzguNjgtMTUuMjUtMTcuMTgtMzcuMTYtMjYuOTUtNjAuMTMtMjYuODEtMzUuMDQtLjA4LTY2LjEzIDIyLjQ4LTc2LjkxIDU1LjgyLTIyLjUxIDQuNjEtNDEuOTQgMTguNy01My4zMSAzOC42Ny0xNy41OSAzMC4zMi0xMy41OCA2OC41NCA5LjkyIDk0LjU0LTcuMjYgMjEuNzktNC43NiA0NS42NiA2Ljg1IDY1LjQ4IDE3LjQ2IDMwLjQgNTIuNTYgNDYuMDQgODYuODQgMzguNjggMTUuMjQgMTcuMTggMzcuMTYgMjYuOTUgNjAuMTMgMjYuOCAzNS4wNi4wOSA2Ni4xNi0yMi40OSA3Ni45NC01NS44NiAyMi41MS00LjYxIDQxLjk0LTE4LjcgNTMuMzEtMzguNjcgMTcuNTctMzAuMzIgMTMuNTUtNjguNTEtOS45NC05NC41MXptLTEyMC4yOCAxNjguMTFjLTE0LjAzLjAyLTI3LjYyLTQuODktMzguMzktMTMuODguNDktLjI2IDEuMzQtLjczIDEuODktMS4wN2w2My43Mi0zNi44YzMuMjYtMS44NSA1LjI2LTUuMzIgNS4yNC05LjA3di04OS44M2wyNi45MyAxNS41NWMuMjkuMTQuNDguNDIuNTIuNzR2NzQuMzljLS4wNCAzMy4wOC0yNi44MyA1OS45LTU5LjkxIDU5Ljk3em0tMTI4Ljg0LTU1LjAzYy03LjAzLTEyLjE0LTkuNTYtMjYuMzctNy4xNS00MC4xOC40Ny4yOCAxLjMuNzkgMS44OSAxLjEzbDYzLjcyIDM2LjhjMy4yMyAxLjg5IDcuMjMgMS44OSAxMC40NyAwbDc3Ljc5LTQ0LjkydjMxLjFjLjAyLjMyLS4xMy42My0uMzguODNsLTY0LjQxIDM3LjE5Yy0yOC42OSAxNi41Mi02NS4zMyA2LjctODEuOTItMjEuOTV6bS0xNi43Ny0xMzkuMDljNy0xMi4xNiAxOC4wNS0yMS40NiAzMS4yMS0yNi4yOSAwIC41NS0uMDMgMS41Mi0uMDMgMi4ydjczLjYxYy0uMDIgMy43NCAxLjk4IDcuMjEgNS4yMyA5LjA2bDc3Ljc5IDQ0LjkxLTI2LjkzIDE1LjU1Yy0uMjcuMTgtLjYxLjIxLS45MS4wOGwtNjQuNDItMzcuMjJjLTI4LjYzLTE2LjU4LTM4LjQ1LTUzLjIxLTIxLjk1LTgxLjg5em0yMjEuMjYgNTEuNDktNzcuNzktNDQuOTIgMjYuOTMtMTUuNTRjLjI3LS4xOC42MS0uMjEuOTEtLjA4bDY0LjQyIDM3LjE5YzI4LjY4IDE2LjU3IDM4LjUxIDUzLjI2IDIxLjk0IDgxLjk0LTcuMDEgMTIuMTQtMTguMDUgMjEuNDQtMzEuMiAyNi4yOHYtNzUuODFjLjAzLTMuNzQtMS45Ni03LjItNS4yLTkuMDZ6bTI2LjgtNDAuMzRjLS40Ny0uMjktMS4zLS43OS0xLjg5LTEuMTNsLTYzLjcyLTM2LjhjLTMuMjMtMS44OS03LjIzLTEuODktMTAuNDcgMGwtNzcuNzkgNDQuOTJ2LTMxLjFjLS4wMi0uMzIuMTMtLjYzLjM4LS44M2w2NC40MS0zNy4xNmMyOC42OS0xNi41NSA2NS4zNy02LjcgODEuOTEgMjIgNi45OSAxMi4xMiA5LjUyIDI2LjMxIDcuMTUgNDAuMXptLTE2OC41MSA1NS40My0yNi45NC0xNS41NWMtLjI5LS4xNC0uNDgtLjQyLS41Mi0uNzR2LTc0LjM5Yy4wMi0zMy4xMiAyNi44OS01OS45NiA2MC4wMS01OS45NCAxNC4wMSAwIDI3LjU3IDQuOTIgMzguMzQgMTMuODgtLjQ5LjI2LTEuMzMuNzMtMS44OSAxLjA3bC02My43MiAzNi44Yy0zLjI2IDEuODUtNS4yNiA1LjMxLTUuMjQgOS4wNmwtLjA0IDg5Ljc5em0xNC42My0zMS41NCAzNC42NS0yMC4wMSAzNC42NSAyMHY0MC4wMWwtMzQuNjUgMjAtMzQuNjUtMjB6Ii8+PC9zdmc+;" parent="LWahpmW2nLwz6pXJYOI1-16" vertex="1">
          <mxGeometry width="376.13" height="102" as="geometry" />
        </mxCell>
        <mxCell id="LWahpmW2nLwz6pXJYOI1-17" value="" style="shape=flexArrow;endArrow=classic;html=1;rounded=0;fontSize=12;startSize=8;endSize=8;curved=1;" parent="1" edge="1">
          <mxGeometry width="50" height="50" relative="1" as="geometry">
            <mxPoint x="792" y="-387" as="sourcePoint" />
            <mxPoint x="913" y="-387" as="targetPoint" />
          </mxGeometry>
        </mxCell>
        <mxCell id="LWahpmW2nLwz6pXJYOI1-18" value="https://chatgpt.com" style="text;html=1;align=center;verticalAlign=middle;whiteSpace=wrap;rounded=0;fontSize=16;" parent="1" vertex="1">
          <mxGeometry x="176" y="-447" width="168" height="30" as="geometry" />
        </mxCell>
        <mxCell id="LWahpmW2nLwz6pXJYOI1-19" value="其他網站" style="text;html=1;align=center;verticalAlign=middle;whiteSpace=wrap;rounded=0;fontSize=16;" parent="1" vertex="1">
          <mxGeometry x="209" y="-138" width="89" height="30" as="geometry" />
        </mxCell>
        <mxCell id="LWahpmW2nLwz6pXJYOI1-20" value="https://claude.ai" style="text;html=1;align=center;verticalAlign=middle;whiteSpace=wrap;rounded=0;fontSize=16;" parent="1" vertex="1">
          <mxGeometry x="164" y="-425" width="168" height="30" as="geometry" />
        </mxCell>
        <mxCell id="LWahpmW2nLwz6pXJYOI1-21" value="電腦/手機" style="text;html=1;align=center;verticalAlign=middle;whiteSpace=wrap;rounded=0;fontSize=16;" parent="1" vertex="1">
          <mxGeometry x="-7" y="-217" width="143" height="30" as="geometry" />
        </mxCell>
        <mxCell id="LWahpmW2nLwz6pXJYOI1-22" value="ISP" style="text;html=1;align=center;verticalAlign=middle;whiteSpace=wrap;rounded=0;fontSize=16;" parent="1" vertex="1">
          <mxGeometry x="379.17" y="-88" width="143" height="30" as="geometry" />
        </mxCell>
        <mxCell id="LWahpmW2nLwz6pXJYOI1-23" value="Wireproxy" style="text;html=1;align=center;verticalAlign=middle;whiteSpace=wrap;rounded=0;fontSize=16;" parent="1" vertex="1">
          <mxGeometry x="342.5" y="-327" width="143" height="30" as="geometry" />
        </mxCell>
      </root>
    </mxGraphModel>
  </diagram>
</mxfile>
